<?xml version="1.0" encoding="utf-8" ?><svg xmlns="http://www.w3.org/2000/svg" xmlns:xlink="http://www.w3.org/1999/xlink" width="1024" height="1024" viewBox="0 0 1024 1024"><path fill="white" d="M0 0L1024 0L1024 1024L0 1024L0 0Z"/><path fill="#0A4759" d="M451.654 205.117C469.266 204.349 492.641 205.037 510.567 205.016L536.894 204.992C542.543 204.99 547.673 205.047 553.508 205.286C563.617 205.701 565.83 218.504 560.233 225.102C557.436 228.4 551.618 228.007 547.475 228.014C547.316 249.806 547.445 271.848 547.457 293.656C547.468 313.777 565.922 319.863 579.219 332.376C574.941 350.244 577.619 366.476 586.288 382.705C595.319 399.614 606.574 416.934 620.729 429.975C618.627 441.106 616.527 451.989 612.725 462.694C599.542 499.811 575.093 528.22 539.627 545.239C534.305 547.537 529.437 549.414 523.834 550.974C485.86 561.546 442.477 545.454 415.453 518.122C391.943 494.644 378.82 462.724 379.02 429.499C379.773 392.506 396.185 357.569 424.178 333.373C439.333 320.103 458.968 314.287 458.86 291.31C458.824 283.768 458.906 276.112 458.89 268.57L458.884 227.993C452.164 228.091 444.873 227.825 442.817 219.791C441.96 216.429 442.538 212.863 444.411 209.943C446.341 206.946 448.317 205.889 451.654 205.117Z"/><path fill="#2698A1" d="M423.852 420.69C453.063 417.283 481.699 431.339 507.363 442.996C529.735 453.157 559.272 459.582 583.215 452.222C590.7 449.921 599.118 444.477 606.92 441.473L607.679 441.186C605.004 469.482 595.086 489.734 573.671 508.788C557.123 523.71 530.499 535.861 507.899 535.596C471.126 535.164 429.681 516.256 412.64 482.233C403.416 463.817 401.146 447.166 400.955 426.541C409.735 423.371 414.639 421.789 423.852 420.69Z"/><path fill="#0A4759" d="M490.92 463.382C497.277 462.223 503.36 466.469 504.464 472.836C505.568 479.203 501.269 485.249 494.893 486.298C488.594 487.334 482.638 483.099 481.548 476.81C480.457 470.52 484.64 464.527 490.92 463.382Z"/><path fill="#0A4759" d="M528.182 498.25C532.734 498.144 536.522 501.723 536.677 506.273C536.831 510.824 533.294 514.651 528.745 514.855C525.759 514.988 522.931 513.507 521.34 510.976C519.749 508.445 519.641 505.254 521.056 502.621C522.472 499.988 525.193 498.319 528.182 498.25Z"/><path fill="white" d="M476.893 390.618C484.967 389.132 492.717 394.475 494.2 402.55C495.683 410.625 490.337 418.373 482.262 419.853C474.19 421.333 466.447 415.991 464.964 407.919C463.482 399.848 468.822 392.103 476.893 390.618Z"/><path fill="white" d="M518.769 363.861C524.778 362.47 530.792 366.153 532.286 372.138C533.779 378.122 530.2 384.199 524.243 385.795C520.297 386.852 516.087 385.698 513.232 382.776C510.377 379.855 509.32 375.62 510.467 371.699C511.615 367.778 514.789 364.782 518.769 363.861Z"/><path fill="white" d="M488.797 337.312C491.482 336.594 494.345 337.387 496.277 339.385C498.209 341.383 498.906 344.271 498.098 346.93C497.29 349.589 495.104 351.601 492.387 352.186C488.327 353.06 484.311 350.537 483.337 346.5C482.363 342.464 484.786 338.386 488.797 337.312Z"/><path fill="#2698A1" d="M679.012 249.913C683.02 253.945 688.162 304.441 688.399 313.559C690.118 342.435 676.771 369.625 662.991 394.152C638.015 438.609 642.774 488.666 603.351 526.224C578.04 550.339 556.829 560.378 521.959 560.663C529.091 557.748 534.897 556.166 542.315 552.736C569.313 540.092 591.996 519.785 607.538 494.345C632.352 452.222 633.328 416.587 639.909 369.144C642.111 353.261 645.639 331.112 646.205 315.66C634.385 345.611 627.552 386.682 622.682 418.569C604.582 398.449 586.596 372.144 588.055 344.371C589.698 313.096 606.915 294.275 633.204 280.508C648.19 272.659 666.832 260.984 679.012 249.913Z"/><path fill="#0A4759" d="M453.983 622.475C471.128 622.43 495.424 619.785 508.623 632.806C522.768 646.76 522.564 672.736 508.799 687.048C494.604 700.39 472.64 697.549 453.975 697.637L453.983 622.475Z"/><path fill="white" d="M468.346 633.905C485.97 633.854 503.433 636.309 504.492 659.016C504.874 667.188 503.04 672.744 497.377 678.879C488.151 685.859 479.17 685.522 468.178 685.529C468.639 668.789 468.328 650.743 468.346 633.905Z"/><path fill="#0A4759" d="M611.618 622.479L627.511 622.484C635.146 636.585 644.126 651.347 651.228 665.392C657.171 653.431 668.392 634.047 675.307 622.482L691.141 622.479C690.979 647.52 690.994 672.562 691.186 697.603C686.453 697.597 681.72 697.62 676.988 697.672L676.988 667.25L676.957 647.294C669.519 659.028 661.707 673.378 654.692 685.566L647.772 685.542C640.681 672.813 632.839 660.041 626.026 647.29L626 697.643C621.236 697.548 616.333 697.621 611.557 697.636C612.194 673.476 611.858 646.737 611.618 622.479Z"/><path fill="#2698A1" d="M591.309 726.959L607.164 726.954C607 751.323 607.016 775.693 607.212 800.061L593.004 800.126L593.007 772.882C593.031 765.791 592.983 758.699 592.863 751.608C585.522 764.215 578.271 776.873 571.112 789.583L563.5 789.524C557.275 776.995 548.239 764.115 542.222 751.403C541.723 767.153 542.063 784.245 542.096 800.095L527.998 800.146L527.978 727.013L543.485 726.957C551.548 740.52 559.625 755.695 567.307 769.531C575.398 755.783 583.441 740.922 591.309 726.959Z"/><path fill="#0A4759" d="M231.088 622.474L244.617 622.489C247.657 631.668 253.894 645.799 257.743 655.071L275.114 697.588L260.434 697.604L253.089 680.036L245.413 680.005L222.465 680.018C220.06 685.866 217.686 691.727 215.344 697.601L199.888 697.607C204.032 689.067 208.077 678.376 211.748 669.492C218.295 653.861 224.742 638.188 231.088 622.474Z"/><path fill="white" d="M237.77 641.793C239.915 643.744 247.804 664.619 249.434 668.721L238.25 668.74L226.621 668.776L237.77 641.793Z"/><path fill="#0A4759" d="M392.512 622.499L405.657 622.489C416.122 647.433 426.369 672.467 436.397 697.59L421.782 697.589C419.257 691.783 416.851 685.926 414.567 680.022L405.997 680.004L383.898 680.02C381.519 685.839 379.197 691.682 376.933 697.547L361.834 697.631C371.796 673.837 383.376 646.507 392.512 622.499Z"/><path fill="white" d="M398.981 641.737C401.395 644.551 408.79 664.012 410.625 668.675L400.375 668.76L387.803 668.636C391.69 660.412 395.628 650.251 398.981 641.737Z"/><path fill="#0A4759" d="M777.851 622.491L790.626 622.513C793.065 629.588 798.074 640.754 801.01 647.896C807.833 664.412 814.559 680.967 821.187 697.562L806.884 697.574L799.474 680.027L790.75 680.005L769.353 680.018C766.73 685.722 764.405 691.795 762.063 697.637C757.132 697.595 752.2 697.585 747.268 697.607C756.801 673.231 769.145 646.644 777.851 622.491Z"/><path fill="white" d="M784.408 641.828C786.121 643.343 794.42 664.799 796.008 668.738L785.222 668.711L773.434 668.707C776.295 660.574 781.009 649.852 784.408 641.828Z"/><path fill="#0A4759" d="M538.351 622.458C554.85 622.628 571.569 622.482 588.084 622.472L588.097 633.989L552.759 633.973C552.959 640.664 552.988 647.359 552.845 654.051L583.071 654.052L583.029 665.547C573.11 665.368 562.849 665.487 552.903 665.472C552.995 672.14 552.958 678.876 552.966 685.55C558.898 685.497 564.83 685.514 570.762 685.6C574.492 685.545 586.344 685.165 589.453 685.939L589.499 697.562C572.451 697.495 555.403 697.528 538.355 697.66C538.495 672.593 538.493 647.525 538.351 622.458Z"/><path fill="#08262F" d="M570.762 685.6C574.492 685.545 586.344 685.165 589.453 685.939C585.924 687.943 557.823 687.174 552.316 686.262C558.344 685.844 564.963 686.279 570.762 685.6Z"/><path fill="#0A4759" d="M317.81 621.202C333.007 619.909 345.15 626.608 352.813 639.473C348.671 640.809 344.491 642.499 340.42 644.073C336.073 638.254 331.713 635.019 324.04 634.106C298.143 631.027 289.048 661.444 303.612 678.67C311.772 688.321 328.542 688.038 338.177 679.354L340.755 675.906C345.48 677.936 348.74 679.103 353.653 680.59C344.145 697.335 329.29 700.429 311.206 697.658C282.041 693.188 273.634 655.143 290.44 634.054C297.706 624.936 306.656 622.309 317.81 621.202Z"/><path fill="#2698A1" d="M453.48 726.98L467.574 726.965L467.521 787.954L500.617 787.941L500.535 800.068L453.515 800.079L453.48 726.98Z"/><path fill="#0A4759" d="M716.362 622.476L730.716 622.486L730.664 697.577L716.278 697.67C716.964 673.63 716.383 646.703 716.362 622.476Z"/><path fill="#2698A1" d="M406.924 726.986L421.097 726.975L421.138 800.101L406.94 800.081L406.924 726.986Z"/></svg>